# xmcd CD database file
#
# Track frame offsets:
#	150
#	29571
#	56770
#	83076
#	106780
#	141255
#	157016
#	184842
#	206461
#
# Disc length: 3198 seconds
#
# Revision: 0
# Processed by: cddbd v1.5.2PL0 Copyright (c) Steve Scherf et al.
# Submitted via: CDex 1.75
#
DISCID=790c7c09
DTITLE=Denys Baptiste - Identity by Subtraction
DYEAR=2011
DGENRE=Jazz
TTITLE0=Identity By Subtraction
TTITLE1=Apprehension
TTITLE2=Dance of the Maquiritari
TTITLE3=Special Times
TTITLE4=Evolution from Revolution
TTITLE5=Harriott's Charriott - A Life In The Bassline
TTITLE6=Song for You
TTITLE7=Dearest
TTITLE8=The Long Night
EXTD=YEAR: 2011
EXTT0=
EXTT1=
EXTT2=
EXTT3=
EXTT4=
EXTT5=
EXTT6=
EXTT7=
EXTT8=
PLAYORDER=
